# xmcd CD database file
#
# Track frame offsets:
#	150
#	35825
#	81990
#	112404
#	168967
#	215532
#	267235
#
# Disc length: 4321 seconds
#
# Revision: 0
# Processed by: cddbd v1.4PL0 Copyright (c) Steve Scherf et al.
# Submitted via: CDex 1.50Beta5
#
DISCID=6710df07
DTITLE=Buddy DeFranco - Gone With The Wind
DYEAR=1977
DGENRE=Jazz
TTITLE0=Gone With The Wind
TTITLE1=Like Someone In Love
TTITLE2=Billie's Bounce
TTITLE3=Yesterdays
TTITLE4=Sophisticated Lady
TTITLE5=Love For Sale
TTITLE6=Darn That Dream
EXTD=YEAR: 1977
EXTT0=
EXTT1=
EXTT2=
EXTT3=
EXTT4=
EXTT5=
EXTT6=
PLAYORDER=
